Coordinates
version=1
nRows=11
nColumns=63
inDegrees=yes

Units are S.I. units (second, meters, Newtons, ...)
If the header above contains a line with 'inDegrees', this indicates whether rotational values are in degrees (yes) or radians (no).

endheader
time	pelvis_tilt	pelvis_list	pelvis_rotation	pelvis_tx	pelvis_ty	pelvis_tz	hip_flexion_r	hip_adduction_r	hip_rotation_r	knee_angle_r	knee_angle_r_beta	ankle_angle_r	subtalar_angle_r	mtp_angle_r	hip_flexion_l	hip_adduction_l	hip_rotation_l	knee_angle_l	knee_angle_l_beta	ankle_angle_l	subtalar_angle_l	mtp_angle_l	L5_S1_Flex_Ext	L5_S1_Lat_Bending	L5_S1_axial_rotation	L4_L5_Flex_Ext	L4_L5_Lat_Bending	L4_L5_axial_rotation	L3_L4_Flex_Ext	L3_L4_Lat_Bending	L3_L4_axial_rotation	L2_L3_Flex_Ext	L2_L3_Lat_Bending	L2_L3_axial_rotation	L1_L2_Flex_Ext	L1_L2_Lat_Bending	L1_L2_axial_rotation	L1_T12_Flex_Ext	L1_T12_Lat_Bending	L1_T12_axial_rotation	Abs_r3	Abs_r2	Abs_r1	Abs_t1	Abs_t2	neck_flexion	neck_bending	neck_rotation	arm_flex_r	arm_add_r	arm_rot_r	elbow_flex_r	pro_sup_r	wrist_flex_r	wrist_dev_r	arm_flex_l	arm_add_l	arm_rot_l	elbow_flex_l	pro_sup_l	wrist_flex_l	wrist_dev_l
      2.55932203	     -0.07045285	    -13.82507516	    100.51193919	      0.15174207	      0.99274325	      0.37232448	      6.40818302	      1.51865985	    -11.49244783	      9.10373584	      0.15889016	     19.82587257	      8.61313692	      0.00000000	      8.39484697	     -3.80802491	    -10.43085453	     12.78176943	      0.22308396	     23.40413412	      1.40221362	      0.00000000	     -0.43070004	      0.70615815	      0.45742670	     -0.79985305	      0.93919033	      0.48601586	     -0.70759710	      1.71695292	      0.48601586	     -0.49224708	      1.71695292	      0.40024836	     -0.39994806	      1.43999769	      0.37165919	     -0.24610200	      1.09383897	      0.34307002	     -3.07644733	      7.98820217	      2.54407005	      0.00000000	      0.00000000	     -2.03910125	      7.04566678	    -26.00992654	    -13.49968518	    -21.04238327	      0.17104456	    148.58505737	     40.19602510	     -4.94244790	     25.75907881	      3.65809337	    -20.48374499	     55.21513437	     99.84866865	     88.25313752	     25.76942797	      1.99165714
      2.57627119	     -0.19835064	    -13.78655199	    100.03933858	      0.15272036	      0.99276906	      0.37141679	      6.21688491	      1.66919785	     -8.93844789	      8.76121040	      0.15291197	     19.41707912	      5.63911470	      0.00000000	      8.25567247	     -3.63719012	     -9.64634451	     12.72611032	      0.22211253	     23.12803676	     -0.35871653	      0.00000000	     -0.42028404	      0.68021790	      0.56669447	     -0.78050949	      0.90468980	      0.60211287	     -0.69048465	      1.65388179	      0.60211287	     -0.48034263	      1.65388179	      0.49585766	     -0.39027576	      1.38710034	      0.46043925	     -0.24015030	      1.05365752	      0.42502085	     -3.00204688	      7.69476090	      3.15178461	      0.00000000	      0.00000000	     -2.34770614	      7.14164316	    -26.30397741	    -12.67141286	    -20.13555133	      0.77639133	    147.85952114	     39.70656518	     -4.95978077	     25.53715418	      3.71201012	    -20.55932469	     55.21347193	     99.85977096	     88.15916838	     25.43397078	      1.23241141
      2.59322034	     -0.36038280	    -13.72579005	     99.68850856	      0.15355598	      0.99280450	      0.37061703	      6.02736445	      1.58563577	     -8.63867815	      8.57021404	      0.14957845	     19.50704129	      5.43180959	      0.00000000	      8.15074948	     -3.54904428	     -9.86375529	     12.83451967	      0.22400463	     23.07408089	     -0.60167640	      0.00000000	     -0.41382856	      0.65118130	      0.59508750	     -0.76852101	      0.86607113	      0.63228047	     -0.67987894	      1.58328222	      0.63228047	     -0.47296466	      1.58328222	      0.52070156	     -0.38428120	      1.32788891	      0.48350859	     -0.23646164	      1.00867984	      0.44631562	     -2.95593600	      7.36629313	      3.30969815	      0.00000000	      0.00000000	     -2.81171878	      7.11807325	    -26.15104299	    -11.01362518	    -20.01067502	      1.76399166	    146.97745405	     42.62963930	     -3.92158735	     23.87545518	      3.33214279	    -20.64493682	     54.68237840	     99.97457034	     87.95507064	     24.97276636	      0.54983548
      2.61016949	     -0.50701221	    -13.72911154	     99.43425953	      0.15423011	      0.99283246	      0.37021021	      5.94824913	      1.49476130	     -8.35109665	      8.42248924	      0.14700017	     19.47207876	      4.79283211	      0.00000000	      8.16609910	     -3.45190416	    -10.05462534	     12.98530654	      0.22663635	     22.73796734	     -0.90518235	      0.00000000	     -0.40578673	      0.62436934	      0.60234761	     -0.75358653	      0.83041122	      0.63999434	     -0.66666702	      1.51809162	      0.63999434	     -0.46377365	      1.51809162	      0.52705416	     -0.37681356	      1.27321396	      0.48940743	     -0.23186654	      0.96714811	      0.45176071	     -2.89849403	      7.06299086	      3.35007671	      0.00000000	      0.00000000	     -3.38130112	      7.01280273	    -25.74337876	     -8.94345106	    -20.41049997	      2.73866404	    146.58444782	     51.27571294	     -2.50935195	     20.76797792	      2.92055993	    -20.71720890	     54.16591630	    100.15358560	     87.77098514	     24.09056108	      0.00702979
      2.62711864	     -0.57694441	    -13.62146161	     99.20918362	      0.15450913	      0.99288892	      0.36989625	      5.80849255	      1.45624344	     -8.07152904	      8.40504988	      0.14669579	     19.43133606	      4.16987648	      0.00000000	      8.12690621	     -3.43222857	    -10.20423726	     13.25529873	      0.23134861	     22.47763412	     -1.27312427	      0.00000000	     -0.41257746	      0.61609945	      0.59635215	     -0.76619761	      0.81941226	      0.63362416	     -0.67782352	      1.49798420	      0.63362416	     -0.47153478	      1.49798420	      0.52180813	     -0.38311943	      1.25634999	      0.48453612	     -0.23574676	      0.95433804	      0.44726411	     -2.94699957	      6.96944017	      3.31673177	      0.00000000	      0.00000000	     -4.24575051	      6.49205350	    -24.88567120	     -6.53111533	    -21.33188961	      3.29598754	    146.82060642	     64.97487256	     -0.50167236	     16.00873672	      2.44928285	    -20.63356982	     53.55070916	    100.29933746	     87.57520542	     23.50129387	     -0.21125969
      2.64406780	     -0.42671278	    -13.58051836	     99.02503027	      0.15445799	      0.99297245	      0.37005814	      5.77915304	      1.59463437	     -7.89725569	      8.32786907	      0.14534874	     19.27457741	      3.90252360	      0.00000000	      8.24823034	     -3.59988703	    -10.29762096	     13.55135359	      0.23651574	     22.15845735	     -1.70218668	      0.00000000	     -0.40468269	      0.64004794	      0.54581502	     -0.75153622	      0.85126376	      0.57992846	     -0.66485319	      1.55621257	      0.57992846	     -0.46251184	      1.55621257	      0.47758815	     -0.37578834	      1.30518577	      0.44347471	     -0.23123569	      0.99143426	      0.40936127	     -2.89060798	      7.24035034	      3.03565942	      0.00000000	      0.00000000	     -5.29667894	      5.70939355	    -23.46457930	     -3.70803355	    -22.45124010	      3.21874006	    147.61997112	     80.32515426	      1.98434833	      9.67797200	      1.65189201	    -20.33047271	     52.56584538	    100.39574569	     87.48262959	     23.09154432	     -0.32587259
      2.66101695	     -0.30502260	    -13.33001072	     98.87894434	      0.15420590	      0.99338689	      0.37097500	      5.68367379	      1.70559152	     -7.81381076	      8.48865859	      0.14815504	     19.24548599	      3.71795555	      0.00000000	      8.24618536	     -3.76327592	    -10.34308809	     13.92012504	      0.24295201	     21.96968823	     -2.09272221	      0.00000000	     -0.43386051	      0.66953063	      0.46472529	     -0.80572235	      0.89047573	      0.49377062	     -0.71278943	      1.62789677	      0.49377062	     -0.49585918	      1.62789677	      0.40663463	     -0.40288287	      1.36530685	      0.37758930	     -0.24790789	      1.03710294	      0.34854397	     -3.09902223	      7.57386435	      2.58466263	      0.00000000	      0.00000000	     -6.38733772	      4.55511937	    -22.07932293	     -0.28228138	    -23.61744970	      3.43518196	    148.88093923	     87.84700183	      2.49777313	      3.62674334	      1.34263407	    -20.10018248	     51.87083271	    100.47223069	     87.45574900	     23.05815330	     -0.30672063
      2.67796610	     -0.13238183	    -12.99237330	     98.95614615	      0.15371382	      0.99403449	      0.37203168	      5.47099445	      1.87761975	     -7.78200843	      8.56887506	      0.14955508	     19.22647151	      3.60448982	      0.00000000	      8.18547046	     -3.94689624	     -9.99615431	     14.22715564	      0.24831071	     21.89705573	     -2.55338202	      0.00000000	     -0.46766091	      0.70104269	      0.24015989	     -0.86849308	      0.93238678	      0.25516988	     -0.76832012	      1.70451521	      0.25516988	     -0.53448966	      1.70451521	      0.21013990	     -0.43426992	      1.42956626	      0.19512991	     -0.26722145	      1.08591513	      0.18011992	     -3.34045514	      7.93033517	      1.33569724	      0.00000000	      0.00000000	     -7.41566149	      3.65794086	    -20.26116882	      3.88515705	    -24.21439727	      4.40431756	    149.46810971	     88.86606151	      2.44957680	     -3.21587464	      0.57329964	    -19.86257601	     50.54189104	    100.58702425	     87.54458810	     23.24644428	     -0.25605035
      2.69491525	     -0.20794720	    -12.60302518	     98.85332378	      0.15375111	      0.99483007	      0.37276294	      5.16573272	      1.84493495	     -7.52447136	      8.65485797	      0.15105577	     19.36684183	      3.68763563	      0.00000000	      7.85444458	     -3.91955547	     -9.93582143	     14.23637652	      0.24847164	     21.82242908	     -2.77760778	      0.00000000	     -0.51012180	      0.69765611	     -0.03272175	     -0.94734720	      0.92788263	     -0.03476686	     -0.83807911	      1.69628107	     -0.03476686	     -0.58301821	      1.69628107	     -0.02863153	     -0.47369911	      1.42266034	     -0.02658642	     -0.29148360	      1.08066932	     -0.02454131	     -3.64374903	      7.89202547	     -0.18198856	      0.00000000	      0.00000000	     -8.17421178	      3.29770396	    -18.05721357	      8.13248512	    -23.66763733	      5.00858410	    149.68825611	     89.13290350	      3.07882013	     -8.64796779	     -0.49247999	    -19.94413070	     48.96332703	    100.83668807	     87.41493106	     23.13877413	     -0.67071071
      2.71186441	     -0.28536065	    -12.19904159	     98.84180736	      0.15377630	      0.99568131	      0.37304921	      4.80055714	      1.81519227	     -7.15751016	      8.70998696	      0.15201795	     19.42124919	      3.87145762	      0.00000000	      7.47647292	     -3.89707584	     -9.90453585	     14.22816854	      0.24832839	     21.88772472	     -2.97443058	      0.00000000	     -0.54231702	      0.69269988	     -0.28570402	     -1.00713693	      0.92129084	     -0.30356052	     -0.89097263	      1.68423048	     -0.30356052	     -0.61981412	      1.68423048	     -0.24999101	     -0.50359558	      1.41255359	     -0.23213451	     -0.30987994	      1.07299211	     -0.21427801	     -3.87371621	      7.83595955	     -1.58900003	      0.00000000	      0.00000000	     -8.83923586	      3.19223511	    -16.38489409	     11.68720053	    -22.64660390	      5.35418151	    149.77193385	     89.23979126	      3.40424441	    -12.85922613	     -1.14516086	    -20.18939864	     47.93194532	    101.03263833	     87.26483346	     23.11409278	     -1.05747349
      2.72881356	     -0.04189247	    -12.01684974	     99.85490530	      0.15214020	      0.99605120	      0.37277698	      4.33314533	      2.09824447	     -7.16129973	      8.10846307	      0.14151938	     19.17464426	      2.81317536	      0.00000000	      7.42046648	     -3.89760534	     -7.73635640	     14.05780086	      0.24535491	     21.96461715	     -4.16210799	      0.00000000	     -0.51896220	      0.71271485	     -0.62846822	     -0.96376470	      0.94791075	     -0.66774748	     -0.85260299	      1.73289489	     -0.66774748	     -0.59312189	      1.73289489	     -0.54990969	     -0.48190830	      1.45336812	     -0.51063043	     -0.29653500	      1.10399530	     -0.47135116	     -3.70689508	      8.06237293	     -3.49535169	      0.00000000	      0.00000000	     -8.78876758	      4.10462167	    -15.23363112	     13.78509389	    -22.60989670	      6.92534073	    149.79802152	     89.34644230	     -2.86480092	    -19.02636736	     -2.26092672	    -19.98379248	     46.57082678	    101.02200531	     87.54422066	     23.46405967	     -1.70202887
